<svg width="24" height="24" viewBox="0 0 24 24" fill="none" xmlns="http://www.w3.org/2000/svg">
<path d="M0 24L1.68779 17.8375C0.646819 16.0341 0.099151 13.988 0.0998188 11.892C0.102487 5.33474 5.4388 0 11.9963 0C15.1785 0.00155219 18.1653 1.23994 20.4116 3.48787C22.6573 5.7358 23.8939 8.72369 23.8928 11.9016C23.8899 18.4585 18.5527 23.7941 11.9963 23.7941C11.9958 23.7941 11.9968 23.7941 11.9963 23.7941H11.9912C10.0004 23.7933 8.04411 23.2939 6.30642 22.3463L0 24Z" fill="white"/>
<path d="M12.0006 2.00781C6.5464 2.00781 2.11089 6.44171 2.10889 11.8916C2.10808 13.7592 2.63074 15.5783 3.62046 17.1522L3.85575 17.5261L2.85661 21.1735L6.59898 20.1922L6.96035 20.4064C8.47813 21.3072 10.2183 21.7835 11.993 21.7844H11.9967C17.4466 21.7844 21.8822 17.3501 21.8844 11.8997C21.8853 9.25847 20.8579 6.77481 18.991 4.90655C17.1241 3.03828 14.6417 2.00893 12.0006 2.00781Z" fill="url(#paint0_linear_11662_38483)"/>
<path fillRule="evenodd" clipRule="evenodd" d="M9.02332 6.91893C8.80051 6.42407 8.56612 6.41404 8.35445 6.40535C8.1811 6.398 7.9828 6.39844 7.78472 6.39844C7.58642 6.39844 7.26446 6.47286 6.99218 6.77031C6.71969 7.06777 5.95166 7.78678 5.95166 9.24931C5.95166 10.7118 7.01692 12.1249 7.16531 12.3234C7.31392 12.5217 9.22162 15.6188 12.2432 16.8102C14.754 17.8003 15.2649 17.6034 15.8101 17.5539C16.3551 17.5044 17.5688 16.8349 17.8163 16.1408C18.0641 15.4468 18.0641 14.8521 17.9899 14.7278C17.9155 14.6037 17.7174 14.5295 17.4199 14.3809C17.1227 14.2322 15.6613 13.513 15.3888 13.4139C15.1163 13.3147 14.9182 13.2652 14.7199 13.5627C14.5218 13.8602 13.9526 14.5295 13.779 14.7278C13.6056 14.9263 13.4323 14.951 13.1348 14.8024C12.8376 14.6534 11.8802 14.3399 10.7445 13.3272C9.86087 12.5393 9.2644 11.5663 9.09084 11.2689C8.91749 10.9714 9.07234 10.8105 9.2214 10.6624C9.35486 10.5291 9.51863 10.3152 9.66747 10.1417C9.81564 9.9681 9.86532 9.84421 9.96425 9.64613C10.0634 9.44761 10.0139 9.27404 9.93952 9.12542C9.86532 8.97681 9.28758 7.5067 9.02332 6.91893Z" fill="white"/>
<defs>
<linearGradient id="paint0_linear_11662_38483" x1="11.7953" y1="3.19462" x2="11.8956" y2="20.0949" gradientUnits="userSpaceOnUse">
<stop stop-color="#57D163"/>
<stop offset="1" stop-color="#23B33A"/>
</linearGradient>
</defs>
</svg>
