<svg id="Réteg_1" data-name="Réteg 1" xmlns="http://www.w3.org/2000/svg" viewBox="0 0 45.69 37.42"><defs><style>.cls-1{fill:#6c737e;}</style></defs><path class="cls-1" d="M22.78,36.8A18,18,0,1,1,35.5,31.54,17.92,17.92,0,0,1,22.78,36.8Zm0-34.27A16.29,16.29,0,1,0,34.3,7.3,16.22,16.22,0,0,0,22.78,2.53Z"/><path class="cls-1" d="M7.92,34.53a.82.82,0,0,1-.6-.25,21.88,21.88,0,0,1,0-30.92.85.85,0,0,1,1.2,1.2,20.18,20.18,0,0,0,0,28.52.85.85,0,0,1-.6,1.45Z"/><path class="cls-1" d="M37.77,34.53a.81.81,0,0,1-.59-.25.83.83,0,0,1,0-1.2,20.19,20.19,0,0,0,0-28.52.84.84,0,0,1,1.19-1.2,21.88,21.88,0,0,1,0,30.92A.82.82,0,0,1,37.77,34.53Z"/><path class="cls-1" d="M23.09,19.55H20.84A.84.84,0,0,1,20,18.7v-4a.84.84,0,0,1,.84-.84h2.25a2.63,2.63,0,0,1,2.63,2.63v.46A2.63,2.63,0,0,1,23.09,19.55Zm-1.4-1.69h1.4a.93.93,0,0,0,.93-.94v-.46a.93.93,0,0,0-.93-.94h-1.4Z"/><path class="cls-1" d="M23.58,23.41H20.84a.83.83,0,0,1-.84-.84V18.7a.84.84,0,0,1,.84-.84h2.74a2.63,2.63,0,0,1,2.63,2.63v.29A2.63,2.63,0,0,1,23.58,23.41Zm-1.89-1.69h1.89a.94.94,0,0,0,.94-.94v-.29a.94.94,0,0,0-.94-.94H21.69Z"/><path class="cls-1" d="M31.13,23.41h-.4a2.86,2.86,0,0,1-2.9-2.94.85.85,0,0,1,1.7,0,1.16,1.16,0,0,0,1.2,1.25h.4c.9,0,1.19-.56,1.19-.82v-.26c0-.62-.73-1.05-1.85-1.63s-2.64-1.39-2.64-3c0-.54.21-2.31,2.89-2.31h.39A2.72,2.72,0,0,1,34,16.42a.85.85,0,0,1-1.7,0c0-.94-1-1-1.21-1h-.39c-1.19,0-1.19.41-1.19.61,0,.51.68.91,1.73,1.46C32.49,18.15,34,19,34,20.64v.26A2.69,2.69,0,0,1,31.13,23.41Z"/><path class="cls-1" d="M17.25,23.41a.85.85,0,0,1-.82-.62L14.58,16.1l-1.85,6.69a.85.85,0,0,1-1.64-.45l2.13-7.68A.85.85,0,0,1,14,14h1.09a.86.86,0,0,1,.82.62l2.13,7.68a.85.85,0,0,1-.6,1A.83.83,0,0,1,17.25,23.41Z"/><path class="cls-1" d="M16.24,21H12.91a.85.85,0,0,1,0-1.7h3.33a.85.85,0,0,1,0,1.7Z"/></svg>