<svg id="Réteg_1" data-name="Réteg 1" xmlns="http://www.w3.org/2000/svg" viewBox="0 0 48.28 30.49"><defs><style>.cls-1{fill:#6c737e;}</style></defs><path class="cls-1" d="M10.77,11.7H4.34a.88.88,0,0,1-.79-.52.86.86,0,0,1,.19-.93L4.86,9.13l-4-4a.85.85,0,0,1,0-1.2l3-3A.83.83,0,0,1,5,.92l4,4,1.12-1.12a.83.83,0,0,1,.92-.18.85.85,0,0,1,.53.78v6.43A.85.85,0,0,1,10.77,11.7ZM6.38,10H9.92V6.46l-.27.28a.85.85,0,0,1-1.2,0l-4-4-1.8,1.8,4,4a.83.83,0,0,1,0,1.2Z"/><path class="cls-1" d="M46.84,27.23a.85.85,0,0,1-.84-.85,19.41,19.41,0,1,0-38.81,0,.85.85,0,1,1-1.7,0,21.1,21.1,0,0,1,42.2,0A.85.85,0,0,1,46.84,27.23Z"/><path class="cls-1" d="M26.59,30.39a4,4,0,1,1,4-4A4,4,0,0,1,26.59,30.39Zm0-6.33a2.32,2.32,0,1,0,2.32,2.32A2.32,2.32,0,0,0,26.59,24.06Z"/><path class="cls-1" d="M13.18,27.23H6.34a.85.85,0,0,1,0-1.7h6.84a.85.85,0,1,1,0,1.7Z"/><path class="cls-1" d="M26.59,14.32a.84.84,0,0,1-.84-.85V6.63a.84.84,0,0,1,.84-.85.85.85,0,0,1,.85.85v6.84A.85.85,0,0,1,26.59,14.32Z"/><path class="cls-1" d="M26.59,27.28A.89.89,0,0,1,26,27l-9.61-9.62a.85.85,0,0,1,1.2-1.2l9.61,9.62a.85.85,0,0,1-.6,1.45Z"/><path class="cls-1" d="M15,15.71a.82.82,0,0,1-.6-.25l-2.78-2.78a.84.84,0,0,1,1.2-1.19l2.77,2.77a.83.83,0,0,1,0,1.2A.81.81,0,0,1,15,15.71Z"/><path class="cls-1" d="M38.14,15.71a.83.83,0,0,1-.6-.25.85.85,0,0,1,0-1.2l2.78-2.77a.85.85,0,0,1,1.2,1.19l-2.78,2.78A.82.82,0,0,1,38.14,15.71Z"/><path class="cls-1" d="M46.84,27.23H40a.85.85,0,0,1,0-1.7h6.84a.85.85,0,0,1,0,1.7Z"/></svg>