<svg id="Réteg_1" data-name="Réteg 1" xmlns="http://www.w3.org/2000/svg" viewBox="0 0 50 39.56"><defs><style>.cls-1{fill:#6c737e;}</style></defs><path class="cls-1" d="M22.48,27.59a9.41,9.41,0,1,1,9.4-9.4A9.41,9.41,0,0,1,22.48,27.59Zm0-17.11a7.71,7.71,0,1,0,7.71,7.71A7.72,7.72,0,0,0,22.48,10.48Z"/><path class="cls-1" d="M34.2,19a.85.85,0,0,1-.85-.85,10.45,10.45,0,0,0-3.44-7.73.84.84,0,0,1-.07-1.19A.85.85,0,0,1,31,9.2a12.09,12.09,0,0,1,4,9A.85.85,0,0,1,34.2,19Z"/><path class="cls-1" d="M10.76,19a.85.85,0,0,1-.85-.85,12.17,12.17,0,0,1,3.85-8.85.85.85,0,0,1,1.16,1.24,10.4,10.4,0,0,0-3.31,7.61A.85.85,0,0,1,10.76,19Z"/><path class="cls-1" d="M7.78,19a.85.85,0,0,1-.85-.85A15,15,0,0,1,12.71,6.33a.85.85,0,1,1,1,1.33A13.3,13.3,0,0,0,8.63,18.19.85.85,0,0,1,7.78,19Z"/><path class="cls-1" d="M37.18,19a.85.85,0,0,1-.85-.85A13.31,13.31,0,0,0,31.27,7.72a.84.84,0,0,1-.13-1.19.84.84,0,0,1,1.19-.14A15,15,0,0,1,38,18.19.85.85,0,0,1,37.18,19Z"/><path class="cls-1" d="M27.43,11.62a.85.85,0,0,1-.85-.85v-6A2.56,2.56,0,0,0,24,2.2H20.94a2.57,2.57,0,0,0-2.57,2.56v6a.85.85,0,1,1-1.69,0v-6A4.26,4.26,0,0,1,20.94.5H24a4.26,4.26,0,0,1,4.26,4.26v6A.85.85,0,0,1,27.43,11.62Z"/><path class="cls-1" d="M22.48,22.71a.85.85,0,0,1-.85-.85V14.52a.85.85,0,1,1,1.7,0v7.34A.85.85,0,0,1,22.48,22.71Z"/><path class="cls-1" d="M46.16,35.82H42.24a.85.85,0,1,1,0-1.69h3.92A1.79,1.79,0,0,0,48,32.34a4.82,4.82,0,0,0-3.78-4.73l-6.33-1.42a.88.88,0,0,1-.35-.17l-2-1.6a18.07,18.07,0,0,0-3-2,.85.85,0,0,1,.8-1.5,20.36,20.36,0,0,1,3.26,2.18l1.81,1.47L44.54,26a6.5,6.5,0,0,1,5.11,6.38A3.49,3.49,0,0,1,46.16,35.82Z"/><path class="cls-1" d="M34,35.82H14.83a.85.85,0,1,1,0-1.69H34a.85.85,0,1,1,0,1.69Z"/><path class="cls-1" d="M6.25,35.82H3.74A3.25,3.25,0,0,1,.5,32.58V25.85A.86.86,0,0,1,1.11,25l1.47-.43L4.4,23.11a19.91,19.91,0,0,1,6.45-3.53.86.86,0,0,1,1.07.54.85.85,0,0,1-.55,1.07,18.23,18.23,0,0,0-5.89,3.23l-2,1.6a1.08,1.08,0,0,1-.3.16l-1,.3v6.1a1.55,1.55,0,0,0,1.54,1.55H6.25a.85.85,0,1,1,0,1.69Z"/><path class="cls-1" d="M10.63,39.21a5,5,0,1,1,5-5A5,5,0,0,1,10.63,39.21Zm0-8.39A3.35,3.35,0,1,0,14,34.17,3.35,3.35,0,0,0,10.63,30.82Z"/><path class="cls-1" d="M38.12,39.21a5,5,0,1,1,5-5A5,5,0,0,1,38.12,39.21Zm0-8.39a3.35,3.35,0,1,0,3.35,3.35A3.35,3.35,0,0,0,38.12,30.82Z"/><path class="cls-1" d="M22.48,17.15a1.9,1.9,0,1,1,1.89-1.89A1.89,1.89,0,0,1,22.48,17.15Zm0-2.09a.2.2,0,1,0,0,.39.19.19,0,0,0,.19-.19A.19.19,0,0,0,22.48,15.06Z"/></svg>