<svg id="Réteg_1" data-name="Réteg 1" xmlns="http://www.w3.org/2000/svg" viewBox="0 0 31.03 39.6"><defs><style>.cls-1{fill:#6c737e;}</style></defs><path class="cls-1" d="M14.74,30.43a.76.76,0,0,1-.39-.1.84.84,0,0,1-.46-.75V21.26l-4.5,3a.85.85,0,0,1-1.18-.23.84.84,0,0,1,.23-1.17l4.77-3.23L8.47,16.45a.85.85,0,0,1-.23-1.18.84.84,0,0,1,1.18-.22l4.47,3v-8a.86.86,0,0,1,.46-.75.85.85,0,0,1,.87.06l6.93,4.87a.87.87,0,0,1,.36.7.86.86,0,0,1-.38.69l-5.9,4,6.09,4.15a.84.84,0,0,1,0,1.39l-7.1,5.05A.89.89,0,0,1,14.74,30.43Zm.84-9.14v6.65l4.78-3.39Zm0-9.54v6.32L20.17,15Z"/><path class="cls-1" d="M15.38,36.53A12.49,12.49,0,0,1,2.91,24.06V15.63a12.47,12.47,0,0,1,24.94,0v8.43A12.49,12.49,0,0,1,15.38,36.53Zm0-31.67A10.78,10.78,0,0,0,4.61,15.63v8.43a10.77,10.77,0,0,0,21.54,0V15.63A10.78,10.78,0,0,0,15.38,4.86Z"/><path class="cls-1" d="M1,15.24a.85.85,0,0,1-.85-.85,14,14,0,0,1,14-14,.85.85,0,1,1,0,1.69A12.33,12.33,0,0,0,1.84,14.39.85.85,0,0,1,1,15.24Z"/><path class="cls-1" d="M16.73,39.22a.85.85,0,1,1,0-1.7A12.32,12.32,0,0,0,29,25.21a.85.85,0,0,1,.85-.85.84.84,0,0,1,.84.85A14,14,0,0,1,16.73,39.22Z"/></svg>