<svg id="Réteg_1" data-name="Réteg 1" xmlns="http://www.w3.org/2000/svg" viewBox="0 0 37.23 41.85"><defs><style>.cls-1{fill:#6c737e;}</style></defs><path class="cls-1" d="M31.24,13.69H15A2.69,2.69,0,0,1,12.34,11V5.86A2.7,2.7,0,0,1,15,3.17H31.24a2.7,2.7,0,0,1,2.69,2.69V11A2.69,2.69,0,0,1,31.24,13.69ZM15,4.87a1,1,0,0,0-1,1V11a1,1,0,0,0,1,1H31.24a1,1,0,0,0,1-1V5.86a1,1,0,0,0-1-1Z"/><path class="cls-1" d="M34.08,20.08H30.64a.85.85,0,0,1,0-1.69h3.44a.83.83,0,0,0,.82-.83V3.21a.82.82,0,0,0-.82-.82H3.15a.82.82,0,0,0-.82.82V17.56a.83.83,0,0,0,.82.83h3.9a.85.85,0,0,1,0,1.69H3.15A2.52,2.52,0,0,1,.63,17.56V3.21A2.52,2.52,0,0,1,3.15.69H34.08A2.52,2.52,0,0,1,36.6,3.21V17.56A2.52,2.52,0,0,1,34.08,20.08Z"/><path class="cls-1" d="M6.09,9H3.89A.84.84,0,0,1,3,8.2a.85.85,0,0,1,.85-.85h2.2a.85.85,0,0,1,.85.85A.84.84,0,0,1,6.09,9Z"/><path class="cls-1" d="M33.08,17.24H4.14a.85.85,0,0,1,0-1.69H33.08a.85.85,0,1,1,0,1.69Z"/><path class="cls-1" d="M20.64,9.28H18.43a.85.85,0,0,1,0-1.69h2.21a.85.85,0,1,1,0,1.69Z"/><path class="cls-1" d="M27.83,9.28h-2.2a.85.85,0,1,1,0-1.69h2.2a.85.85,0,1,1,0,1.69Z"/><path class="cls-1" d="M15.94,10.38a.85.85,0,0,1-.85-.84V7.33a.85.85,0,0,1,1.7,0V9.54A.85.85,0,0,1,15.94,10.38Z"/><path class="cls-1" d="M23.13,10.38a.84.84,0,0,1-.84-.84V7.33a.84.84,0,0,1,.84-.85.85.85,0,0,1,.85.85V9.54A.85.85,0,0,1,23.13,10.38Z"/><path class="cls-1" d="M30.33,10.38a.85.85,0,0,1-.85-.84V7.33a.85.85,0,1,1,1.69,0V9.54A.85.85,0,0,1,30.33,10.38Z"/><path class="cls-1" d="M7.39,12.66A4.47,4.47,0,1,1,11.86,8.2,4.46,4.46,0,0,1,7.39,12.66Zm0-7.23A2.77,2.77,0,1,0,10.16,8.2,2.77,2.77,0,0,0,7.39,5.43Z"/><path class="cls-1" d="M18.81,41.16a14.67,14.67,0,0,1-10-25.38A.85.85,0,1,1,10,17a13,13,0,1,0,17.72,0,.84.84,0,0,1,0-1.19.83.83,0,0,1,1.19,0,14.66,14.66,0,0,1-10,25.38Z"/><path class="cls-1" d="M18.81,29.59a3.1,3.1,0,1,1,3.09-3.1A3.09,3.09,0,0,1,18.81,29.59Zm0-4.49a1.4,1.4,0,1,0,1.4,1.39A1.4,1.4,0,0,0,18.81,25.1Z"/><path class="cls-1" d="M18.81,31.81a5.32,5.32,0,1,1,5.31-5.32A5.32,5.32,0,0,1,18.81,31.81Zm0-8.93a3.62,3.62,0,1,0,3.62,3.61A3.62,3.62,0,0,0,18.81,22.88Z"/><path class="cls-1" d="M18.81,38.26A11.78,11.78,0,0,1,7,26.49a.85.85,0,0,1,1.7,0A10.08,10.08,0,0,0,18.81,36.56a.85.85,0,1,1,0,1.7Z"/></svg>