<svg id="Réteg_1" data-name="Réteg 1" xmlns="http://www.w3.org/2000/svg" viewBox="0 0 44.51 37.73"><defs><style>.cls-1{fill:#6c737e;}</style></defs><path class="cls-1" d="M30.88,19.79H1.33a.85.85,0,0,1-.74-1.26L8.63,4A6.64,6.64,0,0,1,14.52.5H26a5.69,5.69,0,0,1,5.69,5.69V18.94A.85.85,0,0,1,30.88,19.79ZM2.77,18.1H30V6.19a4,4,0,0,0-4-4H14.52a5,5,0,0,0-4.4,2.66Z"/><path class="cls-1" d="M30.84,19.79H5.29a.85.85,0,0,1-.74-1.26L10.39,8.16a5.56,5.56,0,0,1,4.93-3H30.84a.85.85,0,0,1,.85.85V18.94A.85.85,0,0,1,30.84,19.79ZM6.74,18.1H30V6.89H15.32A3.9,3.9,0,0,0,11.87,9Z"/><path class="cls-1" d="M25.36,37.44H6.85A6.38,6.38,0,0,1,.48,31.07V19a.85.85,0,0,1,.85-.85H30.88a.85.85,0,0,1,.85.85V31.07A6.38,6.38,0,0,1,25.36,37.44ZM2.18,19.85V31.07a4.68,4.68,0,0,0,4.67,4.68H25.36A4.68,4.68,0,0,0,30,31.07V19.85Z"/><path class="cls-1" d="M40.75,15.61H36.51a.84.84,0,0,1-.84-.84V9.08H34.08a.85.85,0,0,1-.59-1.45L38,3.08a.85.85,0,0,1,1.2,0l4.55,4.55a.84.84,0,0,1,.18.93.85.85,0,0,1-.78.52H41.6v5.69A.84.84,0,0,1,40.75,15.61Zm-3.39-1.69H39.9V8.23a.85.85,0,0,1,.85-.85h.38l-2.5-2.5-2.5,2.5h.38a.85.85,0,0,1,.85.85Z"/><path class="cls-1" d="M38.63,35a.85.85,0,0,1-.6-.25l-4.54-4.54a.85.85,0,0,1,.59-1.45h1.59V23a.85.85,0,0,1,.84-.85h4.24a.85.85,0,0,1,.85.85v5.69h1.58a.85.85,0,0,1,.6,1.45l-4.55,4.54A.82.82,0,0,1,38.63,35Zm-2.5-4.55,2.5,2.51,2.5-2.51h-.38a.85.85,0,0,1-.85-.84V23.89H37.36v5.69a.85.85,0,0,1-.85.84Z"/><path class="cls-1" d="M16.1,15a.85.85,0,0,1-.59-.25.83.83,0,0,1,0-1.2l4.63-4.63a.85.85,0,0,1,1.2,0,.84.84,0,0,1,0,1.19L16.7,14.75A.86.86,0,0,1,16.1,15Z"/><path class="cls-1" d="M18.28,17.18a.89.89,0,0,1-.6-.25.85.85,0,0,1,0-1.2l4.64-4.63a.85.85,0,1,1,1.2,1.19l-4.64,4.64A.86.86,0,0,1,18.28,17.18Z"/></svg>