<svg id="Réteg_1" data-name="Réteg 1" xmlns="http://www.w3.org/2000/svg" viewBox="0 0 44.89 37.95"><defs><style>.cls-1{fill:#6c737e;}</style></defs><path class="cls-1" d="M43.37,19.79H13.82A.85.85,0,0,1,13,19V6.19A5.69,5.69,0,0,1,18.66.5H30.17a6.65,6.65,0,0,1,5.9,3.56l8,14.48a.84.84,0,0,1-.74,1.25ZM14.66,18.1H41.93L34.58,4.86A5,5,0,0,0,30.17,2.2H18.66a4,4,0,0,0-4,4Z"/><path class="cls-1" d="M39.41,19.79H13.85A.85.85,0,0,1,13,19V6.05a.85.85,0,0,1,.84-.85H29.37a5.58,5.58,0,0,1,4.95,3l5.83,10.35a.87.87,0,0,1,0,.84A.84.84,0,0,1,39.41,19.79ZM14.7,18.1H38L32.83,9a3.88,3.88,0,0,0-3.46-2.1H14.7Z"/><path class="cls-1" d="M37.85,37.45H19.34A6.38,6.38,0,0,1,13,31.07V19a.85.85,0,0,1,.85-.85H43.37a.85.85,0,0,1,.85.85V31.07A6.38,6.38,0,0,1,37.85,37.45ZM14.66,19.85V31.07a4.69,4.69,0,0,0,4.68,4.68H37.85a4.68,4.68,0,0,0,4.67-4.68V19.85Z"/><path class="cls-1" d="M8.18,15.62H4a.85.85,0,0,1-.85-.85V9.08H1.52a.84.84,0,0,1-.79-.52.83.83,0,0,1,.19-.92L5.47,3.09a.82.82,0,0,1,.59-.25h0a.82.82,0,0,1,.6.25l4.55,4.55a.84.84,0,0,1-.6,1.44H9v5.69A.85.85,0,0,1,8.18,15.62Zm-3.39-1.7H7.34V8.23a.85.85,0,0,1,.84-.84h.39L6.06,4.89l-2.5,2.5H4a.85.85,0,0,1,.84.84Z"/><path class="cls-1" d="M6.06,35a.82.82,0,0,1-.59-.25L.92,30.18a.83.83,0,0,1-.19-.92.85.85,0,0,1,.79-.53H3.1V23A.85.85,0,0,1,4,22.2H8.18A.85.85,0,0,1,9,23v5.69h1.58a.85.85,0,0,1,.6,1.45L6.66,34.73A.82.82,0,0,1,6.06,35Zm-2.5-4.55,2.5,2.5,2.51-2.5H8.18a.85.85,0,0,1-.84-.85V23.89H4.79v5.69a.85.85,0,0,1-.84.85Z"/><path class="cls-1" d="M28.59,15a.85.85,0,0,1-.6-.25l-4.63-4.63a.85.85,0,0,1,1.2-1.2l4.63,4.63a.85.85,0,0,1,0,1.2A.82.82,0,0,1,28.59,15Z"/><path class="cls-1" d="M26.41,17.18a.85.85,0,0,1-.6-.25L21.18,12.3a.85.85,0,0,1,1.2-1.2L27,15.73a.85.85,0,0,1,0,1.2A.82.82,0,0,1,26.41,17.18Z"/></svg>