<svg id="Réteg_1" data-name="Réteg 1" xmlns="http://www.w3.org/2000/svg" viewBox="0 0 52.34 51.39"><defs><style>.cls-1{fill:#6c737e;}</style></defs><path class="cls-1" d="M19.28,40.51A4.74,4.74,0,1,1,24,35.78,4.74,4.74,0,0,1,19.28,40.51Zm0-7.77a3,3,0,1,0,3,3A3,3,0,0,0,19.28,32.74Z"/><path class="cls-1" d="M20.84,50.57H17.71a.84.84,0,0,1-.84-.79l-.14-1.84a12.5,12.5,0,0,1-4.25-1.77l-1.4,1.22a.85.85,0,0,1-1.16,0L7.71,45.13a.85.85,0,0,1,0-1.15l1.21-1.41a12.21,12.21,0,0,1-1.76-4.25l-1.85-.13a.85.85,0,0,1-.79-.85V34.21a.85.85,0,0,1,.79-.84l1.85-.14A12.29,12.29,0,0,1,8.88,29l-1.21-1.4a.86.86,0,0,1,0-1.16l2.21-2.21a.86.86,0,0,1,1.16,0l1.4,1.21a12.29,12.29,0,0,1,4.25-1.76l.14-1.85a.85.85,0,0,1,.84-.79h3.13a.85.85,0,0,1,.85.79l.13,1.85a12.21,12.21,0,0,1,4.25,1.76l1.41-1.21a.85.85,0,0,1,1.15,0l2.21,2.21a.85.85,0,0,1,.05,1.16L29.67,29a12.5,12.5,0,0,1,1.77,4.25l1.84.14a.84.84,0,0,1,.79.84v3.13a.84.84,0,0,1-.79.85l-1.84.13a12.42,12.42,0,0,1-1.77,4.25L30.89,44a.84.84,0,0,1-.05,1.15l-2.21,2.21a.84.84,0,0,1-1.15,0l-1.41-1.22a12.42,12.42,0,0,1-4.25,1.77l-.13,1.84A.84.84,0,0,1,20.84,50.57Zm-2.34-1.7h1.56l.12-1.71a.85.85,0,0,1,.72-.78,10.73,10.73,0,0,0,4.73-2,.84.84,0,0,1,1.05,0L28,45.59l1.1-1.1L28,43.18a.84.84,0,0,1,0-1,10.73,10.73,0,0,0,2-4.73.85.85,0,0,1,.78-.72l1.71-.13V35l-1.71-.13a.84.84,0,0,1-.78-.72,10.65,10.65,0,0,0-2-4.72.86.86,0,0,1,0-1.06l1.13-1.3L28,26l-1.31,1.12a.83.83,0,0,1-1.05,0,10.85,10.85,0,0,0-4.73-2,.85.85,0,0,1-.72-.77l-.12-1.72H18.5l-.13,1.72a.84.84,0,0,1-.71.77,10.75,10.75,0,0,0-4.73,2,.84.84,0,0,1-1.06,0L10.57,26l-1.1,1.1,1.12,1.3a.84.84,0,0,1,0,1.06,10.76,10.76,0,0,0-2,4.72.84.84,0,0,1-.77.72L6.18,35v1.55l1.72.13a.85.85,0,0,1,.77.72,10.85,10.85,0,0,0,2,4.73.83.83,0,0,1,0,1L9.47,44.49l1.1,1.1,1.3-1.13a.86.86,0,0,1,1.06,0,10.64,10.64,0,0,0,4.73,2,.84.84,0,0,1,.71.78ZM33.22,37.34Z"/><path class="cls-1" d="M33.6,18.07a4.24,4.24,0,1,1,4.24-4.24A4.25,4.25,0,0,1,33.6,18.07Zm0-6.78a2.54,2.54,0,1,0,2.54,2.54A2.54,2.54,0,0,0,33.6,11.29Z"/><path class="cls-1" d="M35,26.84H32.24a.84.84,0,0,1-.85-.79l-.11-1.53A10.82,10.82,0,0,1,27.68,23l-1.16,1A.84.84,0,0,1,25.37,24l-1.93-1.93a.84.84,0,0,1-.05-1.15l1-1.16a10.82,10.82,0,0,1-1.49-3.6L21.38,16a.84.84,0,0,1-.79-.85V12.46a.84.84,0,0,1,.79-.84l1.53-.11a10.73,10.73,0,0,1,1.49-3.6l-1-1.16a.85.85,0,0,1,.05-1.16l1.93-1.93a.85.85,0,0,1,1.15,0l1.16,1a11.05,11.05,0,0,1,3.6-1.5l.11-1.53a.84.84,0,0,1,.85-.78H35a.84.84,0,0,1,.84.78l.12,1.53a11,11,0,0,1,3.59,1.5l1.16-1a.86.86,0,0,1,1.16,0l1.93,1.93a.86.86,0,0,1,0,1.16l-1,1.16a11.16,11.16,0,0,1,1.49,3.6l1.53.11a.84.84,0,0,1,.78.84v2.73a.84.84,0,0,1-.78.85l-1.53.11a11.25,11.25,0,0,1-1.49,3.6l1,1.16a.85.85,0,0,1,0,1.15L41.84,24a.85.85,0,0,1-1.16.05l-1.16-1a10.77,10.77,0,0,1-3.59,1.49l-.12,1.53A.84.84,0,0,1,35,26.84ZM33,25.14h1.16l.1-1.39A.85.85,0,0,1,35,23a9.25,9.25,0,0,0,4.08-1.69.84.84,0,0,1,1.05,0l1.07.92.81-.82-.91-1.06a.86.86,0,0,1-.05-1.06,9.14,9.14,0,0,0,1.69-4.07.86.86,0,0,1,.78-.72l1.4-.1V13.25l-1.4-.1a.86.86,0,0,1-.78-.72,9.14,9.14,0,0,0-1.69-4.08.84.84,0,0,1,.05-1L42,6.24l-.81-.82-1.07.92a.86.86,0,0,1-1.05,0A9.14,9.14,0,0,0,35,4.69a.85.85,0,0,1-.72-.78l-.1-1.4H33l-.1,1.4a.84.84,0,0,1-.72.78,9.14,9.14,0,0,0-4.07,1.69.87.87,0,0,1-1.06,0L26,5.42l-.82.82.92,1.06a.84.84,0,0,1,0,1,9.3,9.3,0,0,0-1.69,4.08.85.85,0,0,1-.78.72l-1.39.1v1.16l1.39.1a.85.85,0,0,1,.78.72,9.26,9.26,0,0,0,1.69,4.07.86.86,0,0,1,0,1.06l-.92,1.06.82.82,1.06-.92a.86.86,0,0,1,1.06,0A9.26,9.26,0,0,0,32.2,23a.84.84,0,0,1,.72.78Zm12.75-10Z"/><path class="cls-1" d="M1.46,35.74a.85.85,0,0,1-.85-.84A17.71,17.71,0,0,1,11.44,18.55a.85.85,0,0,1,1.11.45.83.83,0,0,1-.45,1.11A16,16,0,0,0,2.31,34.9.85.85,0,0,1,1.46,35.74Z"/><path class="cls-1" d="M12.64,22.08a.73.73,0,0,1-.25,0A.84.84,0,0,1,11.83,21l.61-2-2-.62a.84.84,0,0,1-.56-1.06.86.86,0,0,1,1.06-.56l2.81.87a.83.83,0,0,1,.56,1.05l-.86,2.82A.86.86,0,0,1,12.64,22.08Z"/><path class="cls-1" d="M38.09,30a.85.85,0,0,1-.23-1.66,16.11,16.11,0,0,0,10.78-9.83.85.85,0,0,1,1.59.59A17.8,17.8,0,0,1,38.31,30,.83.83,0,0,1,38.09,30Z"/><path class="cls-1" d="M50.89,21.36a.85.85,0,0,1-.81-.57l-.67-2-2,.67a.84.84,0,0,1-.54-1.6l2.78-.95a.84.84,0,0,1,1.08.53l.95,2.78a.85.85,0,0,1-.53,1.08A.84.84,0,0,1,50.89,21.36Z"/></svg>