<svg id="Réteg_1" data-name="Réteg 1" xmlns="http://www.w3.org/2000/svg" viewBox="0 0 42.87 33.24"><defs><style>.cls-1{fill:#6c737e;}</style></defs><path class="cls-1" d="M21.15,32.1A24.43,24.43,0,0,1,8,27.66c-4.48-3.12-6.94-7-6.94-11S3.54,8.7,8,5.58A24.43,24.43,0,0,1,21.15,1.14c1.58,0,3.78.89,5.34,5.13a31.13,31.13,0,0,1,1.57,10.35A31.09,31.09,0,0,1,26.49,27C24.93,31.21,22.73,32.1,21.15,32.1Zm0-29.26A22.67,22.67,0,0,0,9,7c-5.41,3.78-6.22,7.67-6.22,9.65S3.58,22.49,9,26.27A22.67,22.67,0,0,0,21.15,30.4c1.88,0,3.08-2.18,3.75-4a29.78,29.78,0,0,0,1.46-9.76C26.36,9.94,24.54,2.84,21.15,2.84Z"/><path class="cls-1" d="M35.18,31.44a.85.85,0,0,1-.6-1.45,8.59,8.59,0,0,0,0-12.18l-.17-.17a10.33,10.33,0,0,1,0-14.59.85.85,0,1,1,1.2,1.2,8.63,8.63,0,0,0,0,12.19l.17.17a10.31,10.31,0,0,1,0,14.58A.82.82,0,0,1,35.18,31.44Z"/><path class="cls-1" d="M29.11,12a.85.85,0,0,1-.29-1.64L40.65,6a.85.85,0,0,1,1.09.51.84.84,0,0,1-.5,1.08L29.4,12A.71.71,0,0,1,29.11,12Z"/><path class="cls-1" d="M29.11,19.27a.83.83,0,0,1-.79-.56.84.84,0,0,1,.5-1.09l11.83-4.34a.85.85,0,0,1,.59,1.59L29.4,19.22A.93.93,0,0,1,29.11,19.27Z"/><path class="cls-1" d="M29.11,26.53a.85.85,0,0,1-.29-1.64l11.83-4.35a.85.85,0,0,1,1.09.51.84.84,0,0,1-.5,1.08L29.4,26.48A.71.71,0,0,1,29.11,26.53Z"/></svg>