<svg id="Réteg_1" data-name="Réteg 1" xmlns="http://www.w3.org/2000/svg" viewBox="0 0 45.49 33.81"><defs><style>.cls-1{fill:#6c737e;}</style></defs><path class="cls-1" d="M38.8,27.31H6.69a2.92,2.92,0,0,1-2.91-2.92V5.7a1.9,1.9,0,0,1,1.9-1.9H39.81a1.9,1.9,0,0,1,1.9,1.9V24.39A2.92,2.92,0,0,1,38.8,27.31ZM5.68,5.5a.2.2,0,0,0-.21.2V24.39a1.22,1.22,0,0,0,1.22,1.22H38.8A1.22,1.22,0,0,0,40,24.39V5.7a.2.2,0,0,0-.21-.2Z"/><path class="cls-1" d="M41.86,33.28H3.63A2.91,2.91,0,0,1,.72,30.37V3.65A2.92,2.92,0,0,1,3.63.73H41.86a2.92,2.92,0,0,1,2.91,2.92V30.37A2.91,2.91,0,0,1,41.86,33.28ZM3.63,2.43A1.22,1.22,0,0,0,2.41,3.65V30.37a1.22,1.22,0,0,0,1.22,1.22H41.86a1.22,1.22,0,0,0,1.22-1.22V3.65a1.22,1.22,0,0,0-1.22-1.22Z"/><path class="cls-1" d="M10.64,30.33H6.46a.85.85,0,0,1,0-1.7h4.18a.85.85,0,0,1,0,1.7Z"/><path class="cls-1" d="M20.7,18.56a.86.86,0,0,1-.69-.34L14.76,11a.85.85,0,0,1,.18-1.19.86.86,0,0,1,1.19.19l5.25,7.19a.84.84,0,0,1-.19,1.18A.82.82,0,0,1,20.7,18.56Z"/><path class="cls-1" d="M15.85,18.56a.84.84,0,0,1-.68-.34L9.91,11a.86.86,0,0,1,.19-1.19.85.85,0,0,1,1.18.19l5.26,7.19a.85.85,0,0,1-.19,1.18A.83.83,0,0,1,15.85,18.56Z"/></svg>