<svg id="Réteg_1" data-name="Réteg 1" xmlns="http://www.w3.org/2000/svg" viewBox="0 0 45.17 46.62"><defs><style>.cls-1{fill:#6c737e;}</style></defs><path class="cls-1" d="M41.61,31.77a.85.85,0,0,1-.85-.84V27a3.12,3.12,0,0,0-3.11-3.11H5.36a4.8,4.8,0,0,1-4.8-4.8V15.63a.85.85,0,1,1,1.69,0V19.1a3.12,3.12,0,0,0,3.11,3.11H37.65a4.8,4.8,0,0,1,4.8,4.8v3.92A.85.85,0,0,1,41.61,31.77Z"/><path class="cls-1" d="M16.1,23.9a.85.85,0,0,1-.84-.85V15.63a.85.85,0,1,1,1.69,0v7.42A.85.85,0,0,1,16.1,23.9Z"/><path class="cls-1" d="M23.63,31.87a.85.85,0,0,1-.85-.84V23.6a.85.85,0,0,1,1.7,0V31A.85.85,0,0,1,23.63,31.87Z"/><path class="cls-1" d="M30.08,23.9a.85.85,0,0,1-.85-.85V15.63a.85.85,0,0,1,1.7,0v7.42A.85.85,0,0,1,30.08,23.9Z"/><path class="cls-1" d="M1.4,12.49a.85.85,0,0,1-.84-.85v-10a.85.85,0,1,1,1.69,0v10A.85.85,0,0,1,1.4,12.49Z"/><path class="cls-1" d="M4.26,8.19H1.4a.85.85,0,0,1-.84-.85V1.63A.85.85,0,0,1,1.4.78H4.26a3.71,3.71,0,0,1,0,7.41Zm-2-1.7h2a2,2,0,1,0,0-4h-2Z"/><path class="cls-1" d="M30.08,7.59h-.92a.85.85,0,0,1,0-1.7h.92a1.88,1.88,0,0,0,2-1.71,1.88,1.88,0,0,0-2-1.7h-.47a1.43,1.43,0,0,0-1.54,1.29.85.85,0,0,1-1.7,0,3.13,3.13,0,0,1,3.24-3h.47a3.57,3.57,0,0,1,3.7,3.4A3.57,3.57,0,0,1,30.08,7.59Z"/><path class="cls-1" d="M20.77,45.77a.84.84,0,0,1-.45-1.56c.05,0,4.83-3.1,4.83-7a1.51,1.51,0,0,0-1.52-1.71h-.46a1.44,1.44,0,0,0-1.55,1.29.85.85,0,0,1-.85.85.84.84,0,0,1-.84-.85,3.12,3.12,0,0,1,3.24-3h.46a3.14,3.14,0,0,1,3.22,3.41c0,4.8-5.4,8.24-5.63,8.38A.81.81,0,0,1,20.77,45.77Z"/><path class="cls-1" d="M30.08,12.7h-.47a3.13,3.13,0,0,1-3.24-3,.85.85,0,0,1,1.7,0A1.43,1.43,0,0,0,29.61,11h.47a1.88,1.88,0,0,0,2-1.7,1.88,1.88,0,0,0-2-1.71h-.92a.85.85,0,0,1,0-1.7h.92a3.57,3.57,0,0,1,3.7,3.41A3.57,3.57,0,0,1,30.08,12.7Z"/><path class="cls-1" d="M7.12,12.49a.86.86,0,0,1-.74-.43L3.91,7.76a.85.85,0,0,1,1.47-.84l2.47,4.3a.85.85,0,0,1-.31,1.15A.81.81,0,0,1,7.12,12.49Z"/><path class="cls-1" d="M16.1,12.7a.85.85,0,0,1-.84-.85V2.48H14.07a.85.85,0,0,1,0-1.7h2a.85.85,0,0,1,.85.85V11.85A.85.85,0,0,1,16.1,12.7Z"/><path class="cls-1" d="M18.25,12.7H14.07a.85.85,0,0,1,0-1.7h4.18a.85.85,0,0,1,0,1.7Z"/><path class="cls-1" d="M42,46a.85.85,0,0,1-.85-.85V42H37.37a.84.84,0,0,1-.68-1.35l4.66-6.28a.87.87,0,0,1,.95-.3.85.85,0,0,1,.58.81v5.42h.64a.85.85,0,1,1,0,1.7h-.64v3.1A.85.85,0,0,1,42,46Zm-3-5.65h2.12V37.48Z"/><path class="cls-1" d="M26.59,45.77H20.77a.85.85,0,0,1,0-1.69h5.82a.85.85,0,1,1,0,1.69Z"/></svg>