<svg id="Réteg_1" data-name="Réteg 1" xmlns="http://www.w3.org/2000/svg" viewBox="0 0 37.61 55.49"><defs><style>.cls-1{fill:#6c737e;}</style></defs><path class="cls-1" d="M18.8,43.68A42.59,42.59,0,0,1,7.33,42.11a5.75,5.75,0,0,1-4.2-5.52V2a.85.85,0,0,1,1.7,0V36.59a4,4,0,0,0,3,3.89,41.19,41.19,0,0,0,22,0,4,4,0,0,0,3-3.89V2a.85.85,0,0,1,1.69,0V36.59a5.75,5.75,0,0,1-4.2,5.52A42.54,42.54,0,0,1,18.8,43.68Z"/><path class="cls-1" d="M18.8,29.93a44.64,44.64,0,0,1-7.2-.59L3.85,28.08a.86.86,0,0,1-.47-1.44A19.48,19.48,0,0,0,5.87,2.21a.85.85,0,0,1,1.42-.94A21.22,21.22,0,0,1,5.68,26.66l6.19,1a43,43,0,0,0,13.87,0l6.19-1A21.2,21.2,0,0,1,30.32,1.27.84.84,0,0,1,31.49,1a.85.85,0,0,1,.24,1.18,19.49,19.49,0,0,0,2.49,24.43.83.83,0,0,1,.21.86.88.88,0,0,1-.67.58L26,29.34A44.76,44.76,0,0,1,18.8,29.93Z"/><path class="cls-1" d="M27.93,19.33H9.14a.85.85,0,0,1,0-1.7H27.93a.85.85,0,0,1,0,1.7Z"/><path class="cls-1" d="M27.93,7.23H9.14a.85.85,0,1,1,0-1.69H27.93a.85.85,0,0,1,0,1.69Z"/><path class="cls-1" d="M4,34.76H1.59a.85.85,0,0,1-.85-.85V19.78a.85.85,0,0,1,.85-.85H4a.85.85,0,0,1,.85.85V33.91A.85.85,0,0,1,4,34.76ZM2.44,33.07h.69V20.63H2.44Z"/><path class="cls-1" d="M36,34.76H33.62a.85.85,0,0,1-.84-.85V19.78a.85.85,0,0,1,.84-.85H36a.85.85,0,0,1,.85.85V33.91A.85.85,0,0,1,36,34.76Zm-1.54-1.69h.7V20.63h-.7Z"/><path class="cls-1" d="M18.71,48.42a4,4,0,0,1-2.8-1.16.85.85,0,1,1,1.2-1.2,2.27,2.27,0,0,0,3.2,0,.85.85,0,1,1,1.2,1.2A4,4,0,0,1,18.71,48.42Z"/><path class="cls-1" d="M18.71,51.79a8.52,8.52,0,0,1-6.08-2.53.82.82,0,0,1,0-1.19.84.84,0,0,1,1.19,0,6.93,6.93,0,0,0,9.78,0,.84.84,0,0,1,1.19,0,.82.82,0,0,1,0,1.19A8.52,8.52,0,0,1,18.71,51.79Z"/><path class="cls-1" d="M18.71,55.19a12.47,12.47,0,0,1-8.83-3.65.85.85,0,1,1,1.2-1.2,10.8,10.8,0,0,0,15.26,0,.85.85,0,1,1,1.2,1.2A12.47,12.47,0,0,1,18.71,55.19Z"/></svg>