<svg id="Réteg_1" data-name="Réteg 1" xmlns="http://www.w3.org/2000/svg" viewBox="0 0 40.46 48.11"><defs><style>.cls-1{fill:#6c737e;}</style></defs><path class="cls-1" d="M19.52,47.52a19,19,0,0,1,0-37.9.85.85,0,0,1,0,1.69,17.25,17.25,0,1,0,14.83,8.44.85.85,0,0,1,1.46-.87A19,19,0,0,1,19.52,47.52Z"/><path class="cls-1" d="M19.52,44.46a15.89,15.89,0,0,1,0-31.78.84.84,0,0,1,.84.84.85.85,0,0,1-.84.85A14.18,14.18,0,1,0,31.6,21.11.85.85,0,0,1,33,20.22,15.89,15.89,0,0,1,19.52,44.46Z"/><path class="cls-1" d="M19.52,35.49a6.93,6.93,0,1,1,6.92-6.92A6.93,6.93,0,0,1,19.52,35.49Zm0-12.15a5.23,5.23,0,1,0,5.23,5.23A5.23,5.23,0,0,0,19.52,23.34Z"/><path class="cls-1" d="M29.28,21.82A10.62,10.62,0,1,1,39.89,11.21,10.62,10.62,0,0,1,29.28,21.82Zm0-19.53a8.92,8.92,0,1,0,8.92,8.92A8.93,8.93,0,0,0,29.28,2.29Z"/><path class="cls-1" d="M34,25.46a.69.69,0,0,1-.25,0L29.11,24A35.32,35.32,0,0,0,9.9,24L5.26,25.42a.85.85,0,0,1-.5-1.62l4.66-1.44a37,37,0,0,1,20.17,0l4.69,1.44A.85.85,0,0,1,34,25.46Z"/><path class="cls-1" d="M16.78,44.21a.84.84,0,0,1-.83-.66l-2.81-12H4.89a.85.85,0,0,1,0-1.7h8.92a.85.85,0,0,1,.83.66l3,12.69a.85.85,0,0,1-.63,1Z"/><path class="cls-1" d="M22.63,44l-.18,0a.85.85,0,0,1-.65-1l2.76-12.48a.85.85,0,0,1,.83-.67H34.3a.85.85,0,0,1,0,1.7H26.07L23.46,43.33A.85.85,0,0,1,22.63,44Z"/><path class="cls-1" d="M29.28,13.55a.85.85,0,0,1-.85-.85v-8a.85.85,0,1,1,1.7,0v8A.85.85,0,0,1,29.28,13.55Z"/><path class="cls-1" d="M29.31,18.12a1.48,1.48,0,1,1,1.49-1.48A1.48,1.48,0,0,1,29.31,18.12Z"/></svg>