<svg id="Réteg_1" data-name="Réteg 1" xmlns="http://www.w3.org/2000/svg" viewBox="0 0 51.92 37.38"><defs><style>.cls-1{fill:#6c737e;}</style></defs><path class="cls-1" d="M36.44,37.48a.85.85,0,0,1-.84-.84,9.68,9.68,0,0,0-19.36,0,.85.85,0,0,1-.85.84.84.84,0,0,1-.84-.84,11.37,11.37,0,1,1,22.74,0A.85.85,0,0,1,36.44,37.48Z"/><path class="cls-1" d="M25.92,24.33A7.29,7.29,0,1,1,33.21,17,7.3,7.3,0,0,1,25.92,24.33Zm0-12.88A5.6,5.6,0,1,0,31.51,17,5.6,5.6,0,0,0,25.92,11.45Z"/><path class="cls-1" d="M50.15,31.41a.85.85,0,0,1-.85-.85A8.35,8.35,0,0,0,34,25.9a.85.85,0,0,1-1.18.22A.84.84,0,0,1,32.62,25,10,10,0,0,1,51,30.56.84.84,0,0,1,50.15,31.41Z"/><path class="cls-1" d="M41,19.92a6.48,6.48,0,1,1,6.47-6.48A6.49,6.49,0,0,1,41,19.92ZM41,8.66a4.78,4.78,0,1,0,4.78,4.78A4.78,4.78,0,0,0,41,8.66Z"/><path class="cls-1" d="M1.69,31.41a.85.85,0,0,1-.85-.85A10,10,0,0,1,19.22,25,.84.84,0,0,1,19,26.12a.85.85,0,0,1-1.18-.22A8.34,8.34,0,0,0,2.54,30.56.85.85,0,0,1,1.69,31.41Z"/><path class="cls-1" d="M10.89,19.92a6.48,6.48,0,1,1,6.48-6.48A6.49,6.49,0,0,1,10.89,19.92Zm0-11.26a4.78,4.78,0,1,0,4.78,4.78A4.78,4.78,0,0,0,10.89,8.66Z"/><path class="cls-1" d="M24.49,8.83A.83.83,0,0,1,23.65,8a4.78,4.78,0,0,0-9.11-2A.85.85,0,0,1,13,5.22,6.48,6.48,0,0,1,25.34,8,.84.84,0,0,1,24.49,8.83Z"/><path class="cls-1" d="M27.34,8.83A.84.84,0,0,1,26.5,8,6.48,6.48,0,0,1,38.83,5.22.85.85,0,1,1,37.3,6a4.78,4.78,0,0,0-9.11,2A.84.84,0,0,1,27.34,8.83Z"/></svg>