<svg id="Réteg_1" data-name="Réteg 1" xmlns="http://www.w3.org/2000/svg" viewBox="0 0 46.94 37.16"><defs><style>.cls-1{fill:#6c737e;}</style></defs><path class="cls-1" d="M19.24,36.62a18,18,0,1,1,18-18A18,18,0,0,1,19.24,36.62Zm0-34.35A16.33,16.33,0,1,0,35.57,18.6,16.35,16.35,0,0,0,19.24,2.27Z"/><path class="cls-1" d="M19.17,30.89A12.29,12.29,0,1,1,31.47,18.6,12.3,12.3,0,0,1,19.17,30.89ZM19.17,8a10.6,10.6,0,1,0,10.6,10.6A10.62,10.62,0,0,0,19.17,8Z"/><path class="cls-1" d="M20.06,30.62a.84.84,0,0,1-.83-1L20,25.86a3.9,3.9,0,0,1,5.1-2.95h0l3.67,1.28a.86.86,0,0,1,.53.54.84.84,0,0,1-.11.74,12,12,0,0,1-9,5.15Zm3.71-6.23a2.2,2.2,0,0,0-2.15,1.79l-.5,2.61a10.28,10.28,0,0,0,5.93-3.39l-2.56-.88A2,2,0,0,0,23.77,24.39Z"/><path class="cls-1" d="M23.77,15A3.89,3.89,0,0,1,20,11.84l-.82-4.25a.88.88,0,0,1,.2-.72A.83.83,0,0,1,20,6.58a12.08,12.08,0,0,1,9.41,5.58.82.82,0,0,1,.08.73.85.85,0,0,1-.52.53l-3.94,1.36A3.79,3.79,0,0,1,23.77,15ZM21,8.4l.6,3.12h0a2.18,2.18,0,0,0,2.87,1.66l2.88-1A10.44,10.44,0,0,0,21,8.4Z"/><path class="cls-1" d="M29.21,24.56a.81.81,0,0,1-.55-.21l-3-2.56h0a3.88,3.88,0,0,1,0-5.88l3.13-2.71a.81.81,0,0,1,.73-.19.83.83,0,0,1,.59.47,11.89,11.89,0,0,1,1.14,5.12A12.18,12.18,0,0,1,30,24.1a.83.83,0,0,1-.6.44A.41.41,0,0,1,29.21,24.56Zm-2.4-4,2.1,1.82A10.37,10.37,0,0,0,29,15.25l-2.23,1.94a2.19,2.19,0,0,0,0,3.32Z"/><path class="cls-1" d="M14.83,15a3.69,3.69,0,0,1-1.27-.22h0l-4-1.4a.86.86,0,0,1-.44-1.26,12.1,12.1,0,0,1,9.51-5.55.89.89,0,0,1,.69.29.85.85,0,0,1,.19.72l-.82,4.26a3.89,3.89,0,0,1-1.87,2.64A4,4,0,0,1,14.83,15Zm-.72-1.82A2.19,2.19,0,0,0,17,11.52l.6-3.14a10.38,10.38,0,0,0-6.44,3.77Z"/><path class="cls-1" d="M9.31,24.63l-.16,0a.83.83,0,0,1-.59-.44A12.06,12.06,0,0,1,7.2,18.6a11.82,11.82,0,0,1,1.18-5.2A.82.82,0,0,1,9,12.94a.82.82,0,0,1,.72.18l3.22,2.79h0a3.9,3.9,0,0,1,0,5.88l-3,2.63A.85.85,0,0,1,9.31,24.63Zm.16-9.46a10.47,10.47,0,0,0-.58,3.43,10.19,10.19,0,0,0,.72,3.8l2.19-1.89a2.19,2.19,0,0,0,0-3.32Z"/><path class="cls-1" d="M18.54,30.63h-.05a12,12,0,0,1-9.12-5.12.85.85,0,0,1,.42-1.29l3.77-1.31a3.89,3.89,0,0,1,5.09,2.95l.73,3.76a.86.86,0,0,1-.84,1Zm-7.07-5.2a10.21,10.21,0,0,0,6,3.38L17,26.18h0a2.19,2.19,0,0,0-2.88-1.66Z"/><path class="cls-1" d="M19.24,22.92a4.32,4.32,0,1,1,4.33-4.32A4.33,4.33,0,0,1,19.24,22.92Zm0-7a2.63,2.63,0,1,0,2.63,2.63A2.63,2.63,0,0,0,19.24,16Z"/><path class="cls-1" d="M19.24,20.73a2.13,2.13,0,1,1,2.13-2.13A2.13,2.13,0,0,1,19.24,20.73Zm0-2.56a.43.43,0,0,0,0,.86.43.43,0,1,0,0-.86Z"/><path class="cls-1" d="M27.72,36.58H19.24a.85.85,0,0,1,0-1.69h8.48a16.33,16.33,0,1,0,0-32.65H19.24a.85.85,0,0,1,0-1.7h8.48a18,18,0,1,1,0,36Z"/></svg>