<svg id="Réteg_1" data-name="Réteg 1" xmlns="http://www.w3.org/2000/svg" viewBox="0 0 60.55 40.08"><defs><style>.cls-1{fill:#6c737e;}</style></defs><path class="cls-1" d="M55.47,33.57a.85.85,0,0,1,0-1.7,2.71,2.71,0,0,0,2.71-2.71v-9.1a2.62,2.62,0,0,0-1.93-2.52l-10.38-2a.85.85,0,0,1-.53-.34L39.39,7a2.42,2.42,0,0,0-2-1H12A2.41,2.41,0,0,0,9.74,7.63L7.13,17.76V30.09a1.79,1.79,0,0,0,1.79,1.78h1.36a.85.85,0,0,1,0,1.7H8.92a3.48,3.48,0,0,1-3.48-3.48V17.65a.76.76,0,0,1,0-.21L8.11,7.17a.19.19,0,0,1,0-.07A4.11,4.11,0,0,1,12,4.35H37.44A4.11,4.11,0,0,1,40.76,6L46.52,14l10.07,1.92.06,0a4.3,4.3,0,0,1,3.22,4.16v9.1A4.42,4.42,0,0,1,55.47,33.57Z"/><path class="cls-1" d="M40,33.57H25.13a.85.85,0,0,1,0-1.7H40a.85.85,0,0,1,0,1.7Z"/><path class="cls-1" d="M27.35,15.25H19.86a1.92,1.92,0,0,1-1.92-1.92V9.1a1.92,1.92,0,0,1,1.92-1.92h7.49A1.92,1.92,0,0,1,29.27,9.1v4.23A1.92,1.92,0,0,1,27.35,15.25ZM19.86,8.88a.22.22,0,0,0-.22.22v4.23a.22.22,0,0,0,.22.22h7.49a.22.22,0,0,0,.23-.22V9.1a.22.22,0,0,0-.23-.22Z"/><path class="cls-1" d="M58.63,25.33H56a1.93,1.93,0,0,1-1.93-1.92V21.28A1.93,1.93,0,0,1,56,19.36h2.6a.84.84,0,0,1,.85.84.85.85,0,0,1-.85.85H56a.23.23,0,0,0-.23.23v2.13a.22.22,0,0,0,.23.22h2.65a.85.85,0,1,1,0,1.7Z"/><path class="cls-1" d="M15,15.25H12.34a1.93,1.93,0,0,1-1.73-2.75l2-4.22a1.93,1.93,0,0,1,1.74-1.1H15A1.92,1.92,0,0,1,16.94,9.1v4.23A1.92,1.92,0,0,1,15,15.25Zm-.67-6.37a.23.23,0,0,0-.21.13l-2,4.22a.24.24,0,0,0,0,.22.21.21,0,0,0,.19.1H15a.22.22,0,0,0,.23-.22V9.1A.22.22,0,0,0,15,8.88Z"/><path class="cls-1" d="M38.87,15.25H32.43a1.93,1.93,0,0,1-1.93-1.92V9.1a1.93,1.93,0,0,1,1.93-1.92h3.36A1.94,1.94,0,0,1,37.34,8l3.09,4.22a1.92,1.92,0,0,1-1.56,3.06ZM32.43,8.88a.22.22,0,0,0-.23.22v4.23a.22.22,0,0,0,.23.22h6.44a.22.22,0,0,0,.19-.36L36,9a.21.21,0,0,0-.18-.09Z"/><path class="cls-1" d="M4.56,26.94H3.24A2.58,2.58,0,0,1,.67,24.37v-11a2.58,2.58,0,0,1,2.57-2.57H4.56a2.57,2.57,0,0,1,2.57,2.57v11A2.57,2.57,0,0,1,4.56,26.94ZM3.24,12.54a.87.87,0,0,0-.87.88v11a.87.87,0,0,0,.87.88H4.56a.87.87,0,0,0,.88-.88v-11a.87.87,0,0,0-.88-.88Z"/><path class="cls-1" d="M17.73,39.51A8.49,8.49,0,1,1,26.21,31,8.49,8.49,0,0,1,17.73,39.51Zm0-15.27A6.79,6.79,0,1,0,24.51,31,6.79,6.79,0,0,0,17.73,24.24Z"/><path class="cls-1" d="M17.73,35.57A4.55,4.55,0,1,1,22.28,31,4.55,4.55,0,0,1,17.73,35.57Zm0-7.4A2.86,2.86,0,1,0,20.58,31,2.86,2.86,0,0,0,17.73,28.17Z"/><path class="cls-1" d="M47.59,35.57A4.55,4.55,0,1,1,52.13,31,4.55,4.55,0,0,1,47.59,35.57Zm0-7.4A2.86,2.86,0,1,0,50.44,31,2.86,2.86,0,0,0,47.59,28.17Z"/><path class="cls-1" d="M47.59,39.51A8.49,8.49,0,1,1,56.07,31,8.5,8.5,0,0,1,47.59,39.51Zm0-15.27A6.79,6.79,0,1,0,54.37,31,6.79,6.79,0,0,0,47.59,24.24Z"/><path class="cls-1" d="M40,30.46H25.23a.85.85,0,1,1,0-1.7H40a.85.85,0,0,1,0,1.7Z"/><path class="cls-1" d="M38.85,26.71h-12a.85.85,0,1,1,0-1.69H38.85a.85.85,0,1,1,0,1.69Z"/><path class="cls-1" d="M21.43,17.88H18.79a.85.85,0,0,1,0-1.7h2.64a.85.85,0,1,1,0,1.7Z"/><path class="cls-1" d="M34,17.88H31.33a.85.85,0,0,1,0-1.7H34a.85.85,0,1,1,0,1.7Z"/><path class="cls-1" d="M11.27,27.8h-5a.85.85,0,1,1,0-1.69h5a.85.85,0,1,1,0,1.69Z"/><path class="cls-1" d="M58.79,27.8H54.27a.85.85,0,0,1,0-1.69h4.52a.85.85,0,1,1,0,1.69Z"/><path class="cls-1" d="M34.4,6H14A2.63,2.63,0,1,1,14,.79H34.4A2.63,2.63,0,1,1,34.4,6ZM14,2.48a.94.94,0,1,0,0,1.87H34.4a.94.94,0,1,0,0-1.87Z"/></svg>