<svg id="Réteg_1" data-name="Réteg 1" xmlns="http://www.w3.org/2000/svg" viewBox="0 0 31.33 43.48"><defs><style>.cls-1{fill:#6c737e;}</style></defs><path class="cls-1" d="M11.78,32.72H7.56A6.92,6.92,0,0,1,.65,25.81V9.47a.85.85,0,0,1,.85-.84H17.85a.85.85,0,0,1,.84.84V25.81A6.92,6.92,0,0,1,11.78,32.72ZM2.35,10.32V25.81A5.21,5.21,0,0,0,7.56,31h4.22A5.22,5.22,0,0,0,17,25.81V10.32Z"/><path class="cls-1" d="M14.12,10.32H5.22a.85.85,0,0,1-.84-.85V1.85A.85.85,0,0,1,5.22,1h8.9a.85.85,0,0,1,.85.85V9.47A.85.85,0,0,1,14.12,10.32Zm-8-1.69h7.2V2.7H6.07Z"/><path class="cls-1" d="M9.67,27.76a.85.85,0,0,1-.85-.85V14.1a.85.85,0,0,1,1.7,0V26.91A.85.85,0,0,1,9.67,27.76Z"/><path class="cls-1" d="M9.67,26.28a.87.87,0,0,1-.6-.25l-3-3a.84.84,0,0,1-.25-.6V17.59a.85.85,0,1,1,1.69,0V22.1l2.73,2.73a.85.85,0,0,1-.6,1.45Z"/><path class="cls-1" d="M9.67,22.79a.83.83,0,0,1-.6-.25.85.85,0,0,1,0-1.2l2.61-2.6V16.07a.85.85,0,1,1,1.69,0v3a.89.89,0,0,1-.24.6l-2.86,2.85A.82.82,0,0,1,9.67,22.79Z"/><path class="cls-1" d="M8.24,8.21a.85.85,0,0,1-.84-.84V4.05a.85.85,0,0,1,1.69,0V7.37A.85.85,0,0,1,8.24,8.21Z"/><path class="cls-1" d="M11,8.21a.85.85,0,0,1-.85-.84V4.05a.85.85,0,0,1,1.7,0V7.37A.85.85,0,0,1,11,8.21Z"/><path class="cls-1" d="M11.85,36.61H8a.85.85,0,0,1-.84-.84v-3.9A.85.85,0,0,1,8,31h3.9a.85.85,0,0,1,.85.85v3.9A.85.85,0,0,1,11.85,36.61Zm-3-1.69H11v-2.2H8.8Z"/><path class="cls-1" d="M19.55,43.19H13.33a4.28,4.28,0,0,1-4.27-4.28V35.77a.84.84,0,0,1,.84-.85.85.85,0,0,1,.85.85v3.14a2.58,2.58,0,0,0,2.58,2.58h6.22a2.58,2.58,0,0,0,2.58-2.58V5.27a4.28,4.28,0,0,1,8.55,0V37.45a.85.85,0,1,1-1.7,0V5.27a2.58,2.58,0,0,0-5.16,0V38.91A4.28,4.28,0,0,1,19.55,43.19Z"/></svg>